<svg width="230" height="228" viewBox="0 0 230 228" fill="none" xmlns="http://www.w3.org/2000/svg">
<path d="M119.151 12.2642L117.419 12.7543C117.31 12.4657 117.15 12.1853 116.937 11.913C116.73 11.6353 116.447 11.4066 116.088 11.2269C115.728 11.0472 115.268 10.9574 114.707 10.9574C113.94 10.9574 113.3 11.1344 112.788 11.4883C112.282 11.8368 112.028 12.2805 112.028 12.8196C112.028 13.2988 112.203 13.6772 112.551 13.9549C112.9 14.2326 113.444 14.464 114.185 14.6492L116.047 15.1065C117.169 15.3788 118.004 15.7953 118.554 16.3562C119.104 16.9116 119.379 17.6276 119.379 18.5043C119.379 19.223 119.172 19.8655 118.759 20.4318C118.35 20.9981 117.778 21.4446 117.043 21.7713C116.308 22.098 115.453 22.2614 114.479 22.2614C113.199 22.2614 112.14 21.9837 111.301 21.4283C110.463 20.8729 109.932 20.0616 109.709 18.9943L111.538 18.5369C111.713 19.2121 112.042 19.7185 112.527 20.0561C113.017 20.3937 113.656 20.5625 114.446 20.5625C115.344 20.5625 116.058 20.3719 116.586 19.9908C117.12 19.6042 117.386 19.1413 117.386 18.6023C117.386 18.1667 117.234 17.8019 116.929 17.5078C116.624 17.2083 116.156 16.9851 115.524 16.8381L113.433 16.348C112.284 16.0758 111.44 15.6538 110.901 15.082C110.368 14.5049 110.101 13.7834 110.101 12.9176C110.101 12.2098 110.3 11.5836 110.697 11.0391C111.1 10.4946 111.647 10.0671 112.339 9.75675C113.036 9.44638 113.825 9.2912 114.707 9.2912C115.949 9.2912 116.924 9.56345 117.631 10.108C118.345 10.6525 118.851 11.3712 119.151 12.2642Z" fill="black"/>
<path d="M131.736 23.8001C130.578 23.5901 129.631 23.136 128.895 22.4378C128.158 21.7397 127.652 20.8703 127.376 19.8296C127.1 18.7889 127.074 17.6525 127.297 16.4202C127.525 15.1666 127.956 14.102 128.591 13.2266C129.232 12.3469 130.017 11.7118 130.945 11.3214C131.88 10.9266 132.905 10.8303 134.019 11.0325C134.887 11.19 135.64 11.4927 136.278 11.9405C136.917 12.3884 137.405 12.942 137.745 13.6013C138.085 14.2606 138.238 14.9857 138.205 15.7766L136.309 15.4325C136.266 14.8437 136.035 14.2871 135.616 13.7627C135.203 13.2339 134.578 12.8937 133.742 12.742C133.003 12.6079 132.32 12.6831 131.692 12.9677C131.072 13.248 130.543 13.7081 130.105 14.3482C129.675 14.9839 129.375 15.7679 129.206 16.7001C129.032 17.6538 129.032 18.5114 129.203 19.2731C129.381 20.0357 129.709 20.6626 130.19 21.1539C130.677 21.6461 131.295 21.9602 132.045 22.0964C132.538 22.1858 133.001 22.1813 133.433 22.0827C133.866 21.9842 134.251 21.7995 134.588 21.5286C134.925 21.2577 135.193 20.9079 135.393 20.4793L137.29 20.8235C137.05 21.5327 136.666 22.1408 136.137 22.648C135.614 23.1508 134.976 23.5109 134.222 23.7284C133.475 23.9414 132.646 23.9653 131.736 23.8001Z" fill="black"/>
<path d="M144.765 26.9051L149.173 15.1596L150.917 15.8139L150.251 17.588L150.373 17.6339C150.806 17.1331 151.37 16.807 152.067 16.6555C152.763 16.504 153.463 16.5603 154.167 16.8243C154.299 16.874 154.464 16.9388 154.661 17.0185C154.858 17.0982 155.005 17.1623 155.103 17.2108L154.415 19.046C154.359 19.0077 154.228 18.9322 154.02 18.8193C153.819 18.7033 153.599 18.6003 153.359 18.5104C152.788 18.2961 152.234 18.2246 151.695 18.2958C151.164 18.3638 150.689 18.5581 150.273 18.8785C149.863 19.1958 149.558 19.6195 149.359 20.1497L146.57 27.5824L144.765 26.9051Z" fill="black"/>
<path d="M161.933 35.1757C160.961 34.5948 160.246 33.8537 159.789 32.9525C159.336 32.0541 159.153 31.066 159.238 29.9882C159.329 28.9132 159.706 27.8194 160.371 26.7069C161.041 25.5851 161.83 24.7273 162.736 24.1336C163.648 23.5426 164.606 23.2336 165.612 23.2065C166.622 23.1823 167.613 23.4606 168.586 24.0415C169.558 24.6224 170.27 25.362 170.723 26.2604C171.18 27.1617 171.362 28.1521 171.269 29.2318C171.181 30.3143 170.801 31.4164 170.131 32.5382C169.466 33.6507 168.68 34.5001 167.771 35.0864C166.868 35.6754 165.91 35.9821 164.9 36.0064C163.894 36.0335 162.905 35.7566 161.933 35.1757ZM162.821 33.6892C163.56 34.1305 164.281 34.3043 164.984 34.2105C165.687 34.1167 166.337 33.8298 166.935 33.3496C167.532 32.8695 168.046 32.2695 168.476 31.5496C168.906 30.8298 169.193 30.0906 169.335 29.332C169.477 28.5735 169.425 27.8602 169.177 27.192C168.929 26.5239 168.436 25.9691 167.697 25.5279C166.959 25.0866 166.237 24.9152 165.531 25.0136C164.825 25.1121 164.172 25.4037 163.572 25.8885C162.971 26.3734 162.456 26.9757 162.026 27.6956C161.596 28.4154 161.311 29.1523 161.171 29.9061C161.032 30.66 161.087 31.3687 161.338 32.0321C161.588 32.6956 162.083 33.248 162.821 33.6892Z" fill="black"/>
<path d="M187.057 32.5757L176.051 45.1726L174.6 43.9043L185.605 31.3075L187.057 32.5757Z" fill="black"/>
<path d="M200.438 46.7505L187.36 57.1798L186.158 55.6728L199.236 45.2435L200.438 46.7505Z" fill="black"/>
<path d="M201.94 84.7015C201.617 83.7072 201.583 82.7478 201.838 81.8234C202.098 80.8972 202.619 80.0695 203.401 79.3402C204.189 78.6091 205.214 78.0384 206.478 77.6278C207.731 77.2206 208.888 77.0822 209.95 77.2125C211.011 77.3428 211.917 77.7096 212.669 78.3128C213.42 78.916 213.959 79.7199 214.286 80.7246C214.538 81.5014 214.608 82.1571 214.495 82.6917C214.39 83.2299 214.212 83.6711 213.963 84.0153C213.722 84.363 213.519 84.6379 213.355 84.8398L213.406 84.9952L219.278 83.0871L219.874 84.9203L203.965 90.0893L203.39 88.3182L205.223 87.7226L205.153 87.5051C204.891 87.4411 204.555 87.3387 204.142 87.1978C203.735 87.0552 203.328 86.7956 202.919 86.4188C202.515 86.0404 202.189 85.4679 201.94 84.7015ZM203.668 84.415C203.907 85.1504 204.3 85.7095 204.848 86.0925C205.401 86.4738 206.063 86.6855 206.832 86.7275C207.607 86.7678 208.445 86.6416 209.346 86.3488C210.236 86.0594 210.974 85.6767 211.558 85.2007C212.147 84.723 212.545 84.1699 212.753 83.5412C212.966 82.9109 212.952 82.2229 212.709 81.4771C212.457 80.7004 212.047 80.1178 211.48 79.7295C210.92 79.3447 210.259 79.1331 209.496 79.0946C208.741 79.0596 207.943 79.1783 207.104 79.4509C206.255 79.7269 205.526 80.107 204.916 80.5914C204.313 81.0793 203.89 81.6461 203.648 82.2917C203.412 82.9408 203.419 83.6486 203.668 84.415Z" fill="black"/>
<path d="M205.89 101.548C205.738 100.425 205.871 99.4044 206.291 98.4849C206.711 97.5708 207.369 96.8113 208.265 96.2064C209.162 95.6069 210.253 95.2201 211.537 95.0461C212.832 94.8707 213.994 94.9523 215.023 95.2909C216.054 95.6349 216.893 96.1916 217.541 96.961C218.19 97.7358 218.59 98.6843 218.742 99.8067C218.894 100.929 218.76 101.947 218.34 102.861C217.921 103.781 217.26 104.541 216.358 105.141C215.456 105.747 214.358 106.137 213.063 106.313C211.779 106.487 210.624 106.401 209.599 106.056C208.575 105.717 207.739 105.16 207.09 104.385C206.442 103.616 206.042 102.67 205.89 101.548ZM207.606 101.315C207.721 102.168 208.035 102.84 208.546 103.331C209.058 103.822 209.688 104.152 210.436 104.319C211.184 104.487 211.973 104.515 212.804 104.402C213.635 104.29 214.392 104.053 215.073 103.691C215.755 103.33 216.28 102.844 216.648 102.233C217.016 101.623 217.142 100.892 217.027 100.039C216.911 99.1865 216.595 98.5151 216.078 98.0246C215.561 97.5342 214.926 97.2054 214.172 97.0382C213.419 96.871 212.627 96.8437 211.796 96.9563C210.965 97.0688 210.211 97.3055 209.534 97.6664C208.858 98.0273 208.339 98.5125 207.976 99.1221C207.614 99.7317 207.49 100.463 207.606 101.315Z" fill="black"/>
<path d="M207.127 113.239L219.831 109.983L219.74 112.007L210.023 114.285L210.017 114.415L219.493 117.523L219.4 119.579L209.719 121.793L209.713 121.923L219.154 125.062L219.063 127.085L206.702 122.704L206.787 120.811L216.538 118.502L216.547 118.306L207.042 115.132L207.127 113.239Z" fill="black"/>
<path d="M212.787 132.926L205.43 131.247L205.858 129.367L218.089 132.159L217.675 133.975L215.764 133.538L215.728 133.698C216.283 134.126 216.683 134.675 216.926 135.345C217.175 136.016 217.194 136.814 216.984 137.737C216.795 138.566 216.459 139.251 215.978 139.795C215.502 140.34 214.882 140.707 214.118 140.895C213.36 141.085 212.461 141.062 211.42 140.824L203.648 139.05L204.077 137.171L211.722 138.916C212.682 139.135 213.488 139.056 214.138 138.68C214.793 138.304 215.22 137.681 215.419 136.811C215.556 136.211 215.548 135.645 215.396 135.113C215.243 134.587 214.947 134.131 214.51 133.746C214.073 133.362 213.499 133.088 212.787 132.926Z" fill="black"/>
<path d="M197.619 173.51L198.164 171.795C198.465 171.863 198.788 171.883 199.132 171.856C199.478 171.836 199.825 171.726 200.172 171.525C200.52 171.324 200.849 170.99 201.158 170.522C201.581 169.881 201.786 169.249 201.772 168.627C201.76 168.013 201.529 167.557 201.08 167.26C200.68 166.996 200.268 166.933 199.844 167.071C199.42 167.209 198.927 167.536 198.365 168.052L196.957 169.354C196.112 170.14 195.304 170.608 194.533 170.758C193.766 170.911 193.017 170.746 192.286 170.263C191.686 169.867 191.264 169.341 191.019 168.683C190.771 168.03 190.714 167.307 190.846 166.514C190.978 165.72 191.313 164.917 191.85 164.103C192.555 163.036 193.37 162.305 194.295 161.911C195.221 161.517 196.19 161.521 197.204 161.922L196.578 163.701C195.918 163.475 195.314 163.471 194.766 163.689C194.214 163.912 193.721 164.353 193.286 165.012C192.791 165.762 192.557 166.462 192.584 167.113C192.613 167.771 192.852 168.249 193.302 168.546C193.665 168.786 194.054 168.86 194.467 168.767C194.885 168.678 195.329 168.41 195.8 167.964L197.361 166.489C198.221 165.68 199.038 165.208 199.812 165.073C200.588 164.946 201.337 165.12 202.06 165.597C202.65 165.987 203.063 166.498 203.299 167.13C203.531 167.766 203.587 168.458 203.465 169.206C203.34 169.959 203.034 170.703 202.548 171.44C201.864 172.476 201.1 173.139 200.256 173.43C199.409 173.725 198.53 173.752 197.619 173.51Z" fill="black"/>
<path d="M181.059 177.658C181.872 176.808 182.772 176.268 183.761 176.038C184.749 175.807 185.754 175.864 186.774 176.207C187.795 176.55 188.758 177.154 189.663 178.019C190.584 178.9 191.235 179.846 191.616 180.858C191.997 181.878 192.094 182.883 191.909 183.873C191.723 184.871 191.239 185.779 190.456 186.598C189.847 187.235 189.179 187.697 188.454 187.983C187.729 188.269 186.997 188.372 186.26 188.292C185.522 188.212 184.833 187.941 184.191 187.478L185.523 186.084C186.038 186.373 186.629 186.487 187.298 186.426C187.967 186.372 188.595 186.038 189.182 185.425C189.701 184.881 190.015 184.27 190.123 183.589C190.231 182.917 190.138 182.222 189.845 181.505C189.552 180.795 189.063 180.113 188.378 179.458C187.678 178.788 186.962 178.315 186.232 178.039C185.498 177.766 184.793 177.695 184.119 177.826C183.44 177.961 182.837 178.304 182.31 178.855C181.964 179.217 181.713 179.605 181.557 180.021C181.4 180.437 181.343 180.86 181.383 181.29C181.423 181.72 181.568 182.137 181.815 182.54L180.483 183.933C180.023 183.342 179.728 182.687 179.596 181.966C179.464 181.252 179.515 180.521 179.749 179.773C179.982 179.032 180.419 178.327 181.059 177.658Z" fill="black"/>
<path d="M171.29 186.822L178.664 196.971L177.157 198.066L176.043 196.533L175.938 196.609C176.117 197.246 176.079 197.897 175.821 198.562C175.564 199.226 175.131 199.78 174.523 200.221C174.409 200.305 174.264 200.406 174.089 200.527C173.914 200.647 173.779 200.735 173.685 200.79L172.533 199.204C172.595 199.179 172.731 199.111 172.939 199C173.147 198.896 173.354 198.769 173.561 198.619C174.054 198.26 174.42 197.837 174.657 197.348C174.893 196.867 174.992 196.364 174.954 195.84C174.915 195.323 174.729 194.835 174.397 194.377L169.73 187.955L171.29 186.822Z" fill="black"/>
<path d="M154.929 196.593C155.95 196.102 156.962 195.914 157.966 196.028C158.965 196.145 159.891 196.537 160.743 197.202C161.591 197.87 162.295 198.787 162.858 199.955C163.425 201.132 163.706 202.263 163.702 203.347C163.694 204.433 163.423 205.403 162.892 206.257C162.356 207.114 161.577 207.788 160.557 208.279C159.536 208.77 158.527 208.958 157.527 208.84C156.523 208.726 155.596 208.332 154.747 207.659C153.892 206.989 153.181 206.065 152.614 204.888C152.052 203.72 151.776 202.596 151.788 201.515C151.794 200.436 152.065 199.468 152.602 198.612C153.133 197.757 153.909 197.085 154.929 196.593ZM155.681 198.153C154.905 198.527 154.363 199.032 154.054 199.671C153.745 200.309 153.627 201.01 153.698 201.773C153.769 202.537 153.987 203.296 154.351 204.052C154.715 204.807 155.174 205.453 155.729 205.99C156.283 206.527 156.908 206.876 157.602 207.037C158.296 207.198 159.03 207.092 159.806 206.719C160.581 206.346 161.122 205.837 161.428 205.194C161.735 204.551 161.851 203.845 161.778 203.077C161.704 202.309 161.485 201.547 161.121 200.791C160.757 200.036 160.299 199.392 159.747 198.86C159.195 198.328 158.573 197.984 157.881 197.828C157.189 197.672 156.456 197.78 155.681 198.153Z" fill="black"/>
<path d="M143.259 218.993L138.809 202.869L140.667 202.356L145.117 218.48L143.259 218.993Z" fill="black"/>
<path d="M124.057 222.352L122.558 205.692L124.478 205.519L125.977 222.179L124.057 222.352Z" fill="black"/>
<path d="M91.5567 202.698C92.5645 202.976 93.3839 203.477 94.015 204.199C94.6446 204.926 95.0483 205.817 95.2261 206.871C95.4025 207.931 95.314 209.101 94.9605 210.382C94.6099 211.652 94.0879 212.695 93.3944 213.509C92.7009 214.323 91.8955 214.877 90.9781 215.172C90.0608 215.467 89.093 215.473 88.0747 215.192C87.2874 214.975 86.7016 214.672 86.3174 214.284C85.9265 213.899 85.6559 213.508 85.5057 213.111C85.3488 212.717 85.2311 212.397 85.1526 212.149L84.9951 212.106L83.3524 218.058L81.4944 217.545L85.9444 201.421L87.7395 201.916L87.2267 203.774L87.4472 203.835C87.6445 203.652 87.9155 203.427 88.2601 203.161C88.6033 202.9 89.0447 202.703 89.5843 202.569C90.1224 202.441 90.7799 202.484 91.5567 202.698ZM90.8441 204.298C90.0988 204.092 89.4153 204.113 88.7938 204.359C88.1707 204.611 87.6298 205.046 87.1709 205.665C86.7105 206.289 86.3543 207.058 86.1022 207.971C85.8531 208.874 85.7663 209.7 85.8419 210.45C85.916 211.205 86.1581 211.842 86.5682 212.362C86.9768 212.887 87.5591 213.254 88.3149 213.462C89.1022 213.68 89.8141 213.659 90.4505 213.399C91.0803 213.144 91.6212 212.709 92.0734 212.093C92.519 211.482 92.859 210.751 93.0937 209.901C93.3313 209.04 93.4159 208.222 93.3476 207.446C93.2725 206.674 93.0324 206.009 92.6272 205.451C92.2153 204.897 91.621 204.512 90.8441 204.298Z" fill="black"/>
<path d="M75.3215 196.714C76.3419 197.205 77.1203 197.879 77.6566 198.736C78.1881 199.59 78.4594 200.558 78.4706 201.639C78.4768 202.718 78.1988 203.841 77.6365 205.009C77.0695 206.186 76.3612 207.111 75.5115 207.784C74.6569 208.454 73.73 208.848 72.7308 208.965C71.7267 209.079 70.7144 208.891 69.694 208.4C68.6736 207.908 67.8977 207.236 67.3662 206.381C66.8299 205.525 66.5598 204.555 66.5559 203.471C66.547 202.385 66.8261 201.253 67.3931 200.076C67.9554 198.908 68.6627 197.992 69.5149 197.326C70.3623 196.659 71.288 196.267 72.2921 196.153C73.2913 196.036 74.3011 196.223 75.3215 196.714ZM74.5702 198.274C73.7951 197.901 73.0617 197.792 72.3699 197.949C71.6782 198.105 71.0562 198.449 70.5039 198.981C69.9517 199.513 69.4936 200.157 69.1298 200.912C68.766 201.668 68.5472 202.429 68.4733 203.198C68.3995 203.966 68.5159 204.672 68.8226 205.315C69.1293 205.958 69.6701 206.466 70.4453 206.84C71.2204 207.213 71.955 207.319 72.6491 207.158C73.3433 206.996 73.9676 206.647 74.5222 206.111C75.0768 205.574 75.5361 204.928 75.8999 204.172C76.2637 203.417 76.4814 202.657 76.5528 201.894C76.6243 201.131 76.5055 200.43 76.1965 199.792C75.8875 199.153 75.3454 198.647 74.5702 198.274Z" fill="black"/>
<path d="M64.8827 191.306L60.601 203.702L58.9623 202.512L62.4143 193.147L62.3086 193.07L54.4955 199.266L52.8303 198.056L56.316 188.757L56.2103 188.68L48.3899 194.83L46.7512 193.64L57.2177 185.737L58.7507 186.851L55.3059 196.261L55.4645 196.376L63.3497 190.192L64.8827 191.306Z" fill="black"/>
<path d="M45.3342 185.184L50.7891 179.969L52.1211 181.362L43.0533 190.032L41.7664 188.686L43.1833 187.331L43.0704 187.213C42.4067 187.441 41.7282 187.472 41.0349 187.306C40.3376 187.144 39.6616 186.721 39.0068 186.036C38.4198 185.422 38.0321 184.764 37.8437 184.063C37.6514 183.365 37.6868 182.646 37.9499 181.905C38.2091 181.167 38.7244 180.43 39.4958 179.692L45.2576 174.183L46.5897 175.577L40.9223 180.995C40.21 181.676 39.8319 182.392 39.7881 183.142C39.7404 183.896 40.0251 184.595 40.6422 185.241C41.0674 185.685 41.5439 185.991 42.0716 186.157C42.5956 186.319 43.1385 186.323 43.7004 186.17C44.2622 186.017 44.8069 185.689 45.3342 185.184Z" fill="black"/>
<path d="M19.8198 150.168L20.951 151.568C20.7284 151.781 20.5337 152.039 20.3668 152.341C20.1928 152.641 20.0938 152.991 20.0698 153.392C20.0458 153.793 20.144 154.252 20.3645 154.767C20.6662 155.473 21.0804 155.992 21.607 156.324C22.1265 156.652 22.634 156.711 23.1297 156.499C23.5703 156.311 23.8498 156.002 23.9682 155.572C24.0866 155.142 24.0854 154.551 23.9646 153.797L23.6533 151.905C23.4628 150.767 23.5173 149.834 23.8169 149.108C24.1114 148.384 24.6617 147.85 25.4679 147.505C26.1288 147.223 26.8009 147.161 27.4843 147.319C28.1655 147.472 28.8008 147.822 29.3901 148.369C29.9794 148.917 30.4656 149.639 30.8487 150.535C31.3516 151.712 31.5125 152.795 31.3313 153.784C31.1502 154.773 30.6128 155.58 29.7192 156.205L28.5796 154.702C29.1319 154.277 29.4681 153.775 29.5881 153.197C29.7059 152.613 29.6097 151.959 29.2994 151.233C28.9462 150.407 28.4907 149.826 27.9326 149.49C27.3674 149.151 26.8369 149.088 26.3412 149.299C25.9407 149.471 25.6652 149.754 25.5146 150.15C25.3591 150.548 25.3378 151.067 25.4509 151.705L25.8221 153.82C26.0233 154.984 25.9669 155.926 25.6531 156.646C25.3321 157.364 24.7735 157.893 23.9774 158.233C23.3265 158.511 22.6726 158.574 22.0157 158.423C21.3567 158.266 20.7485 157.931 20.1914 157.417C19.632 156.898 19.179 156.233 18.8324 155.422C18.3444 154.281 18.2117 153.277 18.4342 152.413C18.6545 151.543 19.1164 150.794 19.8198 150.168Z" fill="black"/>
<path d="M25.4812 134.062C25.7429 135.209 25.6975 136.258 25.345 137.21C24.9926 138.161 24.3921 138.969 23.5437 139.631C22.6952 140.294 21.6605 140.765 20.4395 141.044C19.1973 141.327 18.049 141.349 16.9946 141.109C15.9336 140.866 15.0412 140.394 14.3172 139.693C13.5867 138.989 13.0955 138.084 12.8434 136.98C12.6472 136.12 12.6295 135.309 12.7905 134.546C12.9515 133.783 13.2684 133.116 13.7411 132.544C14.2139 131.973 14.8204 131.547 15.5606 131.266L15.9895 133.145C15.4648 133.416 15.0438 133.847 14.7265 134.439C14.4027 135.027 14.3353 135.735 14.5243 136.563C14.6915 137.295 15.0292 137.894 15.5374 138.359C16.0391 138.82 16.6702 139.125 17.4306 139.276C18.1844 139.422 19.0232 139.39 19.9469 139.179C20.8918 138.963 21.6807 138.627 22.3136 138.17C22.9453 137.707 23.3925 137.158 23.6552 136.523C23.9167 135.882 23.9627 135.191 23.793 134.447C23.6816 133.959 23.4955 133.535 23.2347 133.176C22.974 132.816 22.6528 132.535 22.2713 132.332C21.8898 132.128 21.4627 132.019 20.9902 132.004L20.5612 130.125C21.3074 130.066 22.0177 130.181 22.6921 130.468C23.3599 130.751 23.9418 131.196 24.4379 131.804C24.9274 132.407 25.2752 133.16 25.4812 134.062Z" fill="black"/>
<path d="M23.2154 120.861L10.6825 121.423L10.599 119.563L12.492 119.478L12.4861 119.348C11.8557 119.147 11.334 118.756 10.9209 118.175C10.5078 117.594 10.2844 116.928 10.2507 116.178C10.2444 116.036 10.2392 115.859 10.2351 115.647C10.231 115.434 10.2319 115.274 10.2379 115.164L12.1962 115.076C12.1828 115.142 12.165 115.293 12.1429 115.528C12.1151 115.759 12.1069 116.002 12.1184 116.257C12.1458 116.866 12.298 117.405 12.5752 117.872C12.8467 118.334 13.2116 118.694 13.6701 118.951C14.123 119.203 14.6322 119.317 15.198 119.291L23.1289 118.935L23.2154 120.861Z" fill="black"/>
<path d="M24.0729 101.824C23.9209 102.946 23.5204 103.894 22.8715 104.669C22.2233 105.439 21.3868 105.996 20.362 106.34C19.338 106.68 18.1839 106.762 16.8997 106.588C15.6047 106.413 14.506 106.025 13.6038 105.425C12.7023 104.819 12.0414 104.059 11.6213 103.145C11.2018 102.226 11.0681 101.205 11.2202 100.083C11.3722 98.9602 11.7723 98.0144 12.4205 97.245C13.0694 96.4702 13.9086 95.9135 14.9381 95.5749C15.9682 95.2309 17.1308 95.1466 18.4258 95.322C19.71 95.496 20.8002 95.8854 21.6963 96.4904C22.5932 97.0899 23.2513 97.8494 23.6707 98.7689C24.0909 99.683 24.225 100.701 24.0729 101.824ZM22.3571 101.591C22.4726 100.739 22.3491 100.008 21.9865 99.398C21.624 98.7884 21.1046 98.3032 20.4281 97.9423C19.7517 97.5814 18.998 97.3447 18.1671 97.2321C17.3361 97.1196 16.5439 97.1469 15.7905 97.3141C15.037 97.4813 14.4018 97.8101 13.8848 98.3005C13.3677 98.7909 13.0515 99.4624 12.936 100.315C12.8205 101.168 12.9467 101.899 13.3146 102.509C13.6825 103.12 14.2074 103.605 14.8892 103.967C15.5711 104.329 16.3275 104.566 17.1584 104.678C17.9894 104.791 18.7789 104.763 19.5269 104.595C20.275 104.427 20.9048 104.098 21.4164 103.607C21.928 103.116 22.2416 102.444 22.3571 101.591Z" fill="black"/>
<path d="M11.808 79.7435L27.7166 84.9125L27.1209 86.7457L11.2123 81.5767L11.808 79.7435Z" fill="black"/>
<path d="M19.5831 61.8684L34.313 69.7949L33.3996 71.4923L18.6696 63.5658L19.5831 61.8684Z" fill="black"/>
<path d="M53.8896 45.5713C53.1023 46.2591 52.2335 46.6675 51.2832 46.7963C50.3294 46.9211 49.3634 46.7672 48.3854 46.3347C47.4038 45.898 46.4759 45.1795 45.6017 44.1789C44.7348 43.1866 44.1526 42.1768 43.8553 41.1496C43.5579 40.1223 43.5389 39.1447 43.7983 38.2168C44.0577 37.2888 44.5851 36.4773 45.3806 35.7823C45.9957 35.2449 46.5712 34.9229 47.1071 34.8162C47.6434 34.7019 48.1188 34.6915 48.5331 34.785C48.948 34.8709 49.2803 34.9493 49.5303 35.0201L49.6533 34.9127L45.5907 30.2627L47.0423 28.9944L58.0478 41.5913L56.6454 42.8165L55.3772 41.3649L55.205 41.5154C55.2488 41.7808 55.287 42.1306 55.3194 42.565C55.3483 42.9953 55.2698 43.4724 55.084 43.9963C54.8946 44.516 54.4965 45.041 53.8896 45.5713ZM52.9472 44.0953C53.5295 43.5866 53.889 43.005 54.0257 42.3505C54.1589 41.6918 54.0936 41.0005 53.8298 40.2765C53.5625 39.5485 53.1171 38.8277 52.4937 38.1142C51.8776 37.4089 51.2359 36.8813 50.5687 36.5315C49.8979 36.1775 49.2327 36.0285 48.5729 36.0843C47.9095 36.1361 47.2826 36.4199 46.6921 36.9358C46.077 37.4732 45.7024 38.0789 45.5682 38.7529C45.4345 39.4192 45.4998 40.1105 45.7641 40.8268C46.0289 41.5354 46.4515 42.2218 47.0318 42.8861C47.6194 43.5586 48.2557 44.08 48.9408 44.4504C49.6264 44.813 50.3137 44.979 51.0026 44.9483C51.6921 44.9099 52.3403 44.6255 52.9472 44.0953Z" fill="black"/>
<path d="M67.8278 35.3185C66.8556 35.8994 65.8643 36.1777 64.8539 36.1534C63.8482 36.1263 62.8912 35.8196 61.9827 35.2334C61.0789 34.6443 60.2947 33.7935 59.63 32.681C58.9597 31.5592 58.578 30.4585 58.4848 29.3788C58.3962 28.2963 58.5783 27.3059 59.031 26.4074C59.4883 25.5062 60.2032 24.7651 61.1754 24.1843C62.1477 23.6034 63.1367 23.3264 64.1423 23.3535C65.1527 23.3778 66.1111 23.6868 67.0177 24.2806C67.929 24.8715 68.7197 25.7279 69.39 26.8497C70.0547 27.9622 70.4299 29.0574 70.5157 30.1351C70.6061 31.2101 70.4227 32.1983 69.9653 33.0995C69.5126 33.9979 68.8001 34.7376 67.8278 35.3185ZM66.9397 33.832C67.6783 33.3908 68.1728 32.8384 68.4234 32.1749C68.6739 31.5114 68.7294 30.8028 68.5898 30.0489C68.4502 29.2951 68.1654 28.5582 67.7353 27.8384C67.3052 27.1185 66.7899 26.5162 66.1894 26.0313C65.5889 25.5465 64.9358 25.2549 64.23 25.1564C63.5242 25.058 62.8021 25.2294 62.0635 25.6707C61.325 26.1119 60.8318 26.6666 60.5841 27.3348C60.3363 28.003 60.2836 28.7163 60.426 29.4748C60.5684 30.2334 60.8546 30.9726 61.2847 31.6924C61.7148 32.4122 62.2287 33.0123 62.8264 33.4924C63.4241 33.9726 64.0744 34.2595 64.7774 34.3533C65.4804 34.4471 66.2012 34.2733 66.9397 33.832Z" fill="black"/>
<path d="M78.0921 29.5858L70.1052 19.1835L72.0016 18.4717L77.9154 26.5116L78.0377 26.4656L77.1709 16.5317L79.0979 15.8085L84.9389 23.8407L85.0613 23.7947L84.2365 13.8799L86.1329 13.1682L86.9624 26.2568L85.1883 26.9226L79.2325 18.8636L79.049 18.9325L79.8661 28.92L78.0921 29.5858Z" fill="black"/>
<path d="M93.9701 16.6436L95.3177 24.0692L93.4211 24.4134L91.181 12.0695L93.0133 11.737L93.3633 13.6657L93.5241 13.6366C93.6996 12.9572 94.0475 12.3739 94.5678 11.8866C95.0872 11.3939 95.813 11.0629 96.7452 10.8938C97.5809 10.7421 98.3434 10.7808 99.0324 11.0099C99.7205 11.2337 100.301 11.6596 100.775 12.2875C101.248 12.9101 101.579 13.7464 101.77 14.7965L103.193 22.64L101.297 22.9841L99.8967 15.2692C99.7207 14.2995 99.3318 13.5898 98.73 13.1401C98.1272 12.685 97.3865 12.5372 96.5079 12.6966C95.9025 12.8065 95.3852 13.036 94.956 13.385C94.5322 13.7331 94.2293 14.1837 94.0475 14.7369C93.8656 15.2901 93.8399 15.9257 93.9701 16.6436Z" fill="black"/>
</svg>
